<mxfile host="app.diagrams.net" agent="Mozilla/5.0 (Windows NT 10.0; Win64; x64) AppleWebKit/537.36 (KHTML, like Gecko) Chrome/132.0.0.0 Safari/537.36" version="26.0.4">
  <diagram name="Page-1" id="5f0bae14-7c28-e335-631c-24af17079c00">
    <mxGraphModel dx="1562" dy="817" grid="1" gridSize="10" guides="1" tooltips="1" connect="1" arrows="1" fold="1" page="1" pageScale="1" pageWidth="1100" pageHeight="850" background="none" math="0" shadow="0">
      <root>
        <mxCell id="0" />
        <mxCell id="1" parent="0" />
        <mxCell id="SKI5N7TSP68030lI7nV--3" value="Summary Service" style="rounded=0;whiteSpace=wrap;html=1;labelPosition=center;verticalLabelPosition=top;align=center;verticalAlign=bottom;" vertex="1" parent="1">
          <mxGeometry x="250" y="105" width="1110" height="305" as="geometry" />
        </mxCell>
        <mxCell id="SKI5N7TSP68030lI7nV--19" value="Read/Write" style="rounded=0;orthogonalLoop=1;jettySize=auto;html=1;exitX=1;exitY=0.5;exitDx=0;exitDy=0;entryX=0;entryY=0.5;entryDx=0;entryDy=0;labelBackgroundColor=none;labelPosition=center;verticalLabelPosition=top;align=center;verticalAlign=bottom;strokeColor=#FF8000;shape=link;shadow=0;flowAnimation=1;" edge="1" parent="1" source="SKI5N7TSP68030lI7nV--2" target="SKI5N7TSP68030lI7nV--10">
          <mxGeometry relative="1" as="geometry" />
        </mxCell>
        <mxCell id="SKI5N7TSP68030lI7nV--2" value="Kafka Queue I/O" style="rounded=0;whiteSpace=wrap;html=1;" vertex="1" parent="1">
          <mxGeometry x="280" y="220" width="120" height="80" as="geometry" />
        </mxCell>
        <mxCell id="SKI5N7TSP68030lI7nV--4" value="Inference worker&lt;div&gt;Batching reading from inference_queue&lt;/div&gt;&lt;div&gt;&lt;br&gt;&lt;/div&gt;&lt;div&gt;1. Batches based on loop_internval and max_batch_size&lt;/div&gt;&lt;div&gt;2. Run inference and send back the request&lt;/div&gt;" style="rounded=0;whiteSpace=wrap;html=1;movable=1;resizable=1;rotatable=1;deletable=1;editable=1;locked=0;connectable=1;" vertex="1" parent="1">
          <mxGeometry x="920" y="187.5" width="180" height="140" as="geometry" />
        </mxCell>
        <mxCell id="SKI5N7TSP68030lI7nV--10" value="&lt;i&gt;Summary Workers&lt;/i&gt;&lt;div&gt;&lt;i&gt;Multithreaded&lt;/i&gt;&lt;/div&gt;&lt;div&gt;&lt;br&gt;&lt;/div&gt;&lt;div&gt;1.Processing function running parallel in threads&lt;/div&gt;&lt;div&gt;2. After processing places the request in inference_queue&lt;/div&gt;&lt;div&gt;3. Sends back the inference results&amp;nbsp;&lt;/div&gt;" style="rounded=0;whiteSpace=wrap;html=1;movable=1;resizable=1;rotatable=1;deletable=1;editable=1;locked=0;connectable=1;" vertex="1" parent="1">
          <mxGeometry x="530" y="140" width="150" height="240" as="geometry" />
        </mxCell>
        <mxCell id="SKI5N7TSP68030lI7nV--13" style="edgeStyle=orthogonalEdgeStyle;rounded=0;orthogonalLoop=1;jettySize=auto;html=1;exitX=0;exitY=0.5;exitDx=0;exitDy=0;exitPerimeter=0;" edge="1" parent="1">
          <mxGeometry relative="1" as="geometry">
            <mxPoint x="410" y="195" as="sourcePoint" />
            <mxPoint x="410" y="195" as="targetPoint" />
          </mxGeometry>
        </mxCell>
        <mxCell id="SKI5N7TSP68030lI7nV--14" value="inference_queue" style="shape=cylinder3;whiteSpace=wrap;html=1;boundedLbl=1;backgroundOutline=1;size=6.39996337890625;rotation=-90;textDirection=vertical-lr;" vertex="1" parent="1">
          <mxGeometry x="795" y="151" width="20" height="110" as="geometry" />
        </mxCell>
        <mxCell id="SKI5N7TSP68030lI7nV--26" value="complete_queue" style="shape=cylinder3;whiteSpace=wrap;html=1;boundedLbl=1;backgroundOutline=1;size=6.39996337890625;rotation=-90;textDirection=vertical-lr;" vertex="1" parent="1">
          <mxGeometry x="795" y="245" width="20" height="110" as="geometry" />
        </mxCell>
        <mxCell id="SKI5N7TSP68030lI7nV--37" value="" style="endArrow=classic;html=1;rounded=0;exitX=0.987;exitY=0.207;exitDx=0;exitDy=0;exitPerimeter=0;entryX=0.855;entryY=0;entryDx=0;entryDy=1.8559893798828124;entryPerimeter=0;edgeStyle=entityRelationEdgeStyle;flowAnimation=1;strokeColor=#007FFF;" edge="1" parent="1" source="SKI5N7TSP68030lI7nV--10" target="SKI5N7TSP68030lI7nV--14">
          <mxGeometry width="50" height="50" relative="1" as="geometry">
            <mxPoint x="690" y="210" as="sourcePoint" />
            <mxPoint x="740" y="160" as="targetPoint" />
          </mxGeometry>
        </mxCell>
        <mxCell id="SKI5N7TSP68030lI7nV--38" value="" style="endArrow=classic;html=1;rounded=0;edgeStyle=entityRelationEdgeStyle;exitX=0.997;exitY=0.347;exitDx=0;exitDy=0;exitPerimeter=0;entryX=0.145;entryY=0;entryDx=0;entryDy=1.8559893798828124;entryPerimeter=0;flowAnimation=1;strokeColor=#007FFF;" edge="1" parent="1" target="SKI5N7TSP68030lI7nV--14">
          <mxGeometry width="50" height="50" relative="1" as="geometry">
            <mxPoint x="677.5500000000002" y="221.27999999999997" as="sourcePoint" />
            <mxPoint x="773" y="210" as="targetPoint" />
          </mxGeometry>
        </mxCell>
        <mxCell id="SKI5N7TSP68030lI7nV--42" value="" style="endArrow=classic;html=1;rounded=0;entryX=1;entryY=0.75;entryDx=0;entryDy=0;exitX=0.145;exitY=0;exitDx=0;exitDy=1.8559893798828124;exitPerimeter=0;strokeColor=#33FF99;edgeStyle=entityRelationEdgeStyle;flowAnimation=1;" edge="1" parent="1" source="SKI5N7TSP68030lI7nV--26" target="SKI5N7TSP68030lI7nV--10">
          <mxGeometry width="50" height="50" relative="1" as="geometry">
            <mxPoint x="700" y="380" as="sourcePoint" />
            <mxPoint x="750" y="330" as="targetPoint" />
          </mxGeometry>
        </mxCell>
        <mxCell id="SKI5N7TSP68030lI7nV--43" style="edgeStyle=entityRelationEdgeStyle;rounded=0;orthogonalLoop=1;jettySize=auto;html=1;exitX=0.855;exitY=0;exitDx=0;exitDy=1.8559893798828124;exitPerimeter=0;entryX=0.992;entryY=0.588;entryDx=0;entryDy=0;entryPerimeter=0;flowAnimation=1;strokeColor=#33FF99;" edge="1" parent="1" source="SKI5N7TSP68030lI7nV--26" target="SKI5N7TSP68030lI7nV--10">
          <mxGeometry relative="1" as="geometry" />
        </mxCell>
        <mxCell id="SKI5N7TSP68030lI7nV--45" value="" style="endArrow=classic;html=1;rounded=0;entryX=0;entryY=0.25;entryDx=0;entryDy=0;exitX=0.5;exitY=1;exitDx=0;exitDy=0;exitPerimeter=0;edgeStyle=entityRelationEdgeStyle;flowAnimation=1;strokeColor=#33FF33;" edge="1" parent="1" source="SKI5N7TSP68030lI7nV--14" target="SKI5N7TSP68030lI7nV--4">
          <mxGeometry width="50" height="50" relative="1" as="geometry">
            <mxPoint x="840" y="187.5" as="sourcePoint" />
            <mxPoint x="890" y="137.5" as="targetPoint" />
          </mxGeometry>
        </mxCell>
        <mxCell id="SKI5N7TSP68030lI7nV--46" value="" style="endArrow=classic;html=1;rounded=0;entryX=0.5;entryY=1;entryDx=0;entryDy=0;exitX=0;exitY=0.75;exitDx=0;exitDy=0;edgeStyle=entityRelationEdgeStyle;entryPerimeter=0;flowAnimation=1;strokeColor=#007FFF;" edge="1" parent="1" source="SKI5N7TSP68030lI7nV--4" target="SKI5N7TSP68030lI7nV--26">
          <mxGeometry width="50" height="50" relative="1" as="geometry">
            <mxPoint x="920" y="297" as="sourcePoint" />
            <mxPoint x="860" y="280" as="targetPoint" />
          </mxGeometry>
        </mxCell>
      </root>
    </mxGraphModel>
  </diagram>
</mxfile>
